<?xml version="1.0" encoding="UTF-8" standalone="no"?>
<svg
   version="1.1"
   width="1024px"
   height="1024px"
   style="shape-rendering:geometricPrecision; text-rendering:geometricPrecision; image-rendering:optimizeQuality; fill-rule:evenodd; clip-rule:evenodd"
   id="svg46"
   sodipodi:docname="logo.svg"
   inkscape:export-filename="Logo.svg"
   inkscape:export-xdpi="384"
   inkscape:export-ydpi="384"
   inkscape:version="1.4 (e7c3feb1, 2024-10-09)"
   xmlns:inkscape="http://www.inkscape.org/namespaces/inkscape"
   xmlns:sodipodi="http://sodipodi.sourceforge.net/DTD/sodipodi-0.dtd"
   xmlns="http://www.w3.org/2000/svg"
   xmlns:svg="http://www.w3.org/2000/svg">
  <defs
     id="defs46" />
  <sodipodi:namedview
     id="namedview46"
     pagecolor="#ffffff"
     bordercolor="#000000"
     borderopacity="0.25"
     inkscape:showpageshadow="2"
     inkscape:pageopacity="0.0"
     inkscape:pagecheckerboard="0"
     inkscape:deskcolor="#d1d1d1"
     inkscape:zoom="0.42063712"
     inkscape:cx="385.13006"
     inkscape:cy="419.60158"
     inkscape:window-width="1376"
     inkscape:window-height="820"
     inkscape:window-x="0"
     inkscape:window-y="38"
     inkscape:window-maximized="0"
     inkscape:current-layer="g46" />
  <g
     id="g46"
     transform="matrix(4.0650373,0,0,3.4739783,-2872.1044,-902.56197)">
    <g
       id="g50"
       style="clip-rule:evenodd;fill-rule:evenodd;image-rendering:optimizeQuality;shape-rendering:geometricPrecision;text-rendering:geometricPrecision"
       transform="matrix(0.8561515,0,0,0.89201913,90.388433,55.349311)">
      <g
         id="g10"
         transform="matrix(1.1066496,0,0,1.1440591,-54.487023,-71.417603)">
        <path
           style="opacity:1"
           fill="#033f42"
           d="m 865.5,351.5 c 1.16,12.493 1.327,25.16 0.5,38 -1.518,-0.663 -2.685,-1.663 -3.5,-3 0.996,-0.086 1.829,0.248 2.5,1 0.5,-11.995 0.667,-23.995 0.5,-36 z"
           id="path10" />
      </g>
      <g
         id="g14"
         transform="matrix(1.1066496,0,0,1.1440591,-54.487023,-71.417603)">
        <path
           style="opacity:1"
           fill="#850f04"
           d="m 902.5,332.5 c 0.333,0 0.667,0 1,0 0.167,37.002 0,74.002 -0.5,111 -0.186,2.536 -0.686,4.869 -1.5,7 0,-0.667 0,-1.333 0,-2 0.963,-38.649 1.297,-77.316 1,-116 z"
           id="path14" />
      </g>
      <path
         id="path18"
         style="fill:#df983c;fill-opacity:1;stroke-width:1.1252"
         d="m 857.00586,373.62695 c -3.9339,0.0765 -8.04757,0.45667 -12.33984,1.13867 -32.18359,12.9496 -45.64696,37.16659 -40.39258,72.64844 10.94808,31.3129 32.52703,45.42361 64.73828,42.33008 10.34828,-1.91745 19.56976,-6.30415 27.66601,-13.1582 15.39681,-16.93322 20.92993,-36.95365 16.59961,-60.0625 -9.97851,-29.1326 -28.73417,-43.43207 -56.27148,-42.89649 z m -2.38086,38.32032 c 19.56778,0.21737 26.76141,10.13234 21.58008,29.74609 -7.23527,10.73013 -16.64099,13.20847 -28.21875,7.43555 -8.23348,-8.44316 -9.89399,-18.16798 -4.98047,-29.17383 3.36754,-3.72277 7.24013,-6.39126 11.61914,-8.00781 z" />
      <g
         id="g20"
         transform="matrix(1.1066496,0,0,1.1440591,-54.487023,-71.417603)">
        <path
           style="opacity:1"
           fill="#d64123"
           d="m 902.5,332.5 c 0.297,38.684 -0.037,77.351 -1,116 -1.43,0.079 -2.764,-0.254 -4,-1 -0.333,-4.667 -0.667,-9.333 -1,-14 -0.144,-5.171 0.356,-10.171 1.5,-15 0.168,8.686 0.668,17.352 1.5,26 0.667,-37.667 1.333,-75.333 2,-113 0.607,0.124 0.94,0.457 1,1 z"
           id="path20" />
      </g>
      <g
         id="g22"
         transform="matrix(1.1066496,0,0,1.1440591,-54.487023,-71.417603)">
        <path
           style="opacity:1"
           fill="#c84126"
           d="m 903.5,332.5 c -0.333,0 -0.667,0 -1,0 -0.06,-0.543 -0.393,-0.876 -1,-1 -0.667,37.667 -1.333,75.333 -2,113 -0.832,-8.648 -1.332,-17.314 -1.5,-26 -1.144,4.829 -1.644,9.829 -1.5,15 0.333,4.667 0.667,9.333 1,14 1.236,0.746 2.57,1.079 4,1 0,0.667 0,1.333 0,2 -2.587,21.416 -14.254,34.916 -35,40.5 -10.841,0.825 -21.508,0.659 -32,-0.5 9.351,-1.676 17.684,-5.509 25,-11.5 13.913,-14.801 18.913,-32.301 15,-52.5 0,-31.667 0,-63.333 0,-95 -10.339,0.166 -20.672,0 -31,-0.5 -2.894,-2.909 -3.727,-6.409 -2.5,-10.5 13.471,-14.471 27.304,-28.638 41.5,-42.5 3.667,-2 7.333,-2 11,0 14.529,14.195 28.696,28.695 42.5,43.5 1.027,3.68 0.194,6.847 -2.5,9.5 -10.077,0.191 -20.077,0.691 -30,1.5 z"
           id="path22" />
      </g>
      <g
         id="g24"
         transform="matrix(1.1066496,0,0,1.1440591,-54.487023,-71.417603)">
        <path
           style="opacity:1"
           fill="#267577"
           d="m 865.5,351.5 c 0.167,12.005 0,24.005 -0.5,36 -0.671,-0.752 -1.504,-1.086 -2.5,-1 -16.531,-9.533 -34.197,-12.366 -53,-8.5 -29.302,9.253 -44.969,29.253 -47,60 2.907,39.573 24.073,61.406 63.5,65.5 15.485,-2.415 30.985,-4.582 46.5,-6.5 22.383,-8.403 35.217,-24.569 38.5,-48.5 0.333,-18.333 0.667,-36.667 1,-55 10.553,18.64 14.219,38.64 11,60 -6.409,37.653 -27.243,63.819 -62.5,78.5 -44.807,13.928 -82.307,3.095 -112.5,-32.5 -20.984,-30.874 -24.984,-63.874 -12,-99 20.883,-42.369 55.05,-61.869 102.5,-58.5 9.801,1.32 18.801,4.487 27,9.5 z"
           id="path24" />
      </g>
    </g>
  </g>
</svg>
