<?xml version="1.0" encoding="UTF-8" standalone="no"?>
<svg
   version="1.1"
   width="1024"
   height="1024"
   style="clip-rule:evenodd;fill-rule:evenodd;image-rendering:optimizeQuality;shape-rendering:geometricPrecision;text-rendering:geometricPrecision"
   id="svg46"
   sodipodi:docname="44E52AB4-AEC8-424C-83AB-71F0FA094891.svg"
   inkscape:version="1.4 (e7c3feb1, 2024-10-09)"
   xmlns:inkscape="http://www.inkscape.org/namespaces/inkscape"
   xmlns:sodipodi="http://sodipodi.sourceforge.net/DTD/sodipodi-0.dtd"
   xmlns="http://www.w3.org/2000/svg"
   xmlns:svg="http://www.w3.org/2000/svg">
  <sodipodi:namedview
     id="namedview1"
     pagecolor="#ffffff"
     bordercolor="#000000"
     borderopacity="0.25"
     inkscape:showpageshadow="2"
     inkscape:pageopacity="0.0"
     inkscape:pagecheckerboard="0"
     inkscape:deskcolor="#d1d1d1"
     inkscape:zoom="0.50928698"
     inkscape:cx="473.21061"
     inkscape:cy="495.7912"
     inkscape:window-width="1560"
     inkscape:window-height="726"
     inkscape:window-x="0"
     inkscape:window-y="38"
     inkscape:window-maximized="0"
     inkscape:current-layer="svg46" />
  <defs
     id="defs46">
    <inkscape:path-effect
       effect="fill_between_many"
       method="originald"
       linkedpaths="#g15,0,1|"
       id="path-effect47" />
    <inkscape:path-effect
       effect="fill_between_many"
       method="originald"
       linkedpaths="#g16,0,1|"
       id="path-effect48" />
  </defs>
  <g
     id="g2"
     transform="matrix(1.1066496,0,0,1.1440591,-54.487023,-71.417603)">
    <path
       style="opacity:1"
       fill="#8a2a19"
       d="m 672.5,251.5 c 4.746,-1.289 9.413,-0.956 14,1 -4.652,-0.498 -9.319,-0.831 -14,-1 z"
       id="path2" />
  </g>
  <g
     id="g3"
     transform="matrix(1.1066496,0,0,1.1440591,-54.487023,-71.417603)">
    <path
       style="opacity:1"
       fill="#c84125"
       d="m 672.5,251.5 c 4.681,0.169 9.348,0.502 14,1 12.464,2.961 20.631,10.628 24.5,23 3.682,21.82 -4.818,36.32 -25.5,43.5 -24.947,1.89 -38.947,-9.61 -42,-34.5 0.899,-14.647 7.899,-25.147 21,-31.5 2.563,-1.079 5.229,-1.579 8,-1.5 z"
       id="path3" />
  </g>
  <g
     id="g4"
     transform="matrix(1.1066496,0,0,1.1440591,-54.487023,-71.417603)">
    <path
       style="opacity:1"
       fill="#a0361f"
       d="m 219.5,270.5 c -14.691,-0.247 -29.358,0.086 -44,1 0.763,-0.768 1.763,-1.268 3,-1.5 13.852,-2.156 27.518,-1.989 41,0.5 z"
       id="path4" />
  </g>
  <g
     id="g5"
     transform="matrix(1.1066496,0,0,1.1440591,-54.487023,-71.417603)">
    <path
       style="opacity:1"
       fill="#8d1003"
       d="m 591.5,290.5 c -15,0 -30,0 -45,0 0.166,4.014 -10e-4,8.014 -0.5,12 -0.278,0.916 -0.778,1.582 -1.5,2 0.754,-4.963 1.087,-9.963 1,-15 15.509,-0.33 30.842,0.004 46,1 z"
       id="path5" />
  </g>
  <g
     id="g6"
     transform="matrix(1.1066496,0,0,1.1440591,-54.487023,-71.417603)">
    <path
       style="opacity:1"
       fill="#820e03"
       d="m 591.5,327.5 c 12.667,0 25.333,0 38,0 0,15 0,30 0,45 -0.996,-14.49 -1.329,-29.157 -1,-44 -12.511,0.329 -24.845,-0.005 -37,-1 z"
       id="path6" />
  </g>
  <g
     id="g7"
     transform="matrix(1.1066496,0,0,1.1440591,-54.487023,-71.417603)">
    <path
       style="opacity:1"
       fill="#c6452c"
       d="m 703.5,328.5 c -17.636,1.987 -35.636,2.653 -54,2 -0.999,54.164 -1.332,108.497 -1,163 0,0.333 0,0.667 0,1 -1.165,-55.165 -1.332,-110.498 -0.5,-166 18.598,-1.331 37.098,-1.331 55.5,0 z"
       id="path7" />
  </g>
  <g
     id="g8"
     transform="matrix(1.1066496,0,0,1.1440591,-54.487023,-71.417603)">
    <path
       style="opacity:1"
       fill="#c1452b"
       d="m 703.5,328.5 c 2.473,-0.412 3.806,0.588 4,3 -0.958,-0.453 -1.792,-1.119 -2.5,-2 -0.483,0.948 -0.649,1.948 -0.5,3 -18.697,0.654 -37.03,-0.013 -55,-2 18.364,0.653 36.364,-0.013 54,-2 z"
       id="path8" />
  </g>
  <g
     id="g10"
     transform="matrix(1.1066496,0,0,1.1440591,-54.487023,-71.417603)">
    <path
       style="opacity:1"
       fill="#033f42"
       d="m 865.5,351.5 c 1.16,12.493 1.327,25.16 0.5,38 -1.518,-0.663 -2.685,-1.663 -3.5,-3 0.996,-0.086 1.829,0.248 2.5,1 0.5,-11.995 0.667,-23.995 0.5,-36 z"
       id="path10" />
  </g>
  <path
     id="path11"
     style="stroke-width:1.1252;fill:#c84126;fill-opacity:1"
     d="m 176.23438,237.96289 c -12.18333,0.037 -24.35123,0.44817 -36.50391,1.23242 -21.07061,3.3807 -39.883976,11.96005 -56.439454,25.74024 -32.532731,32.23616 -46.734158,71.70622 -42.605469,118.41015 6.391676,63.04452 39.40647,101.75252 99.044923,116.12305 42.90591,7.97867 81.27038,-1.93744 115.0918,-29.74609 30.36425,-31.36667 43.45833,-69.31064 39.28515,-113.83399 C 287.06249,289.38108 251.834,250.1023 188.42188,238.05078 c -4.06445,-0.0706 -8.1264,-0.10021 -12.1875,-0.0879 z m -11.9375,63.67188 c 28.20395,-0.003 46.39096,15.03011 54.55859,45.10156 5.18908,24.62473 1.86999,47.88638 -9.95899,69.78711 -14.69077,18.15622 -33.31992,24.44852 -55.88671,18.87695 -13.7955,-3.96416 -23.93978,-12.54351 -30.4336,-25.74023 -10.99346,-27.12221 -10.99346,-54.19784 0,-81.22852 7.52411,-13.31799 18.40723,-22.09059 32.64649,-26.31445 3.13206,-0.3222 6.15656,-0.48208 9.07422,-0.48242 z"
     sodipodi:nodetypes="scccccccscccccccc" />
  <g
     id="g12"
     transform="matrix(1.1066496,0,0,1.1440591,-54.487023,-71.417603)" />
  <g
     id="g13"
     transform="matrix(1.1066496,0,0,1.1440591,-54.487023,-71.417603)">
    <path
       style="opacity:1"
       fill="#c94126"
       d="m 707.5,331.5 c 0,54 0,108 0,162 -19.667,0 -39.333,0 -59,0 -0.332,-54.503 10e-4,-108.836 1,-163 17.97,1.987 36.303,2.654 55,2 -0.149,-1.052 0.017,-2.052 0.5,-3 0.708,0.881 1.542,1.547 2.5,2 z"
       id="path13" />
  </g>
  <g
     id="g14"
     transform="matrix(1.1066496,0,0,1.1440591,-54.487023,-71.417603)">
    <path
       style="opacity:1"
       fill="#850f04"
       d="m 902.5,332.5 c 0.333,0 0.667,0 1,0 0.167,37.002 0,74.002 -0.5,111 -0.186,2.536 -0.686,4.869 -1.5,7 0,-0.667 0,-1.333 0,-2 0.963,-38.649 1.297,-77.316 1,-116 z"
       id="path14" />
  </g>
  <path
     inkscape:original-d="M 0,0"
     inkscape:path-effect="#path-effect47"
     d="M 0,0"
     id="path47" />
  <path
     id="path15"
     style="color:#000000;font-style:normal;font-variant:normal;font-weight:normal;font-stretch:normal;font-size:medium;line-height:normal;font-family:sans-serif;font-variant-ligatures:normal;font-variant-position:normal;font-variant-caps:normal;font-variant-numeric:normal;font-variant-alternates:normal;font-variant-east-asian:normal;font-feature-settings:normal;font-variation-settings:normal;text-indent:0;text-align:start;text-decoration-line:none;text-decoration-style:solid;text-decoration-color:#000000;letter-spacing:normal;word-spacing:normal;text-transform:none;writing-mode:lr-tb;direction:ltr;text-orientation:mixed;dominant-baseline:auto;baseline-shift:baseline;text-anchor:start;white-space:normal;shape-padding:0;shape-margin:0;inline-size:0;clip-rule:nonzero;display:inline;overflow:visible;visibility:visible;isolation:auto;mix-blend-mode:normal;color-interpolation:sRGB;color-interpolation-filters:linearRGB;solid-color:#000000;solid-opacity:1;vector-effect:none;fill:#c84126;fill-opacity:1;fill-rule:nonzero;stroke:none;stroke-width:1.1252;stroke-linecap:butt;stroke-linejoin:miter;stroke-miterlimit:4;stroke-dasharray:none;stroke-dashoffset:0;stroke-opacity:1;-inkscape-stroke:none;color-rendering:auto;image-rendering:auto;shape-rendering:auto;text-rendering:auto;enable-background:accumulate;stop-color:#000000"
     d="M 416.66992 295.22461 C 397.71272 294.86577 378.64714 301.57823 365.55859 316.26172 C 358.60624 328.27598 361.06338 310.11643 360.62695 304.40625 L 307.33984 304.40625 C 303.9824 304.93034 298.62416 303.38455 296.44141 305.12305 C 297.47456 342.24995 299.40844 379.37226 299.63867 416.53125 C 299.27347 461.13847 297.99128 505.75856 298.6543 550.37891 C 318.76299 550.75067 338.88499 550.3731 358.9668 549.23438 C 359.15134 524.05835 359.69944 498.88509 360.62695 473.72656 C 368.12175 482.61982 377.1684 491.10599 388.32422 495.06836 C 405.06484 500.31409 423.19067 499.61881 440.30469 496.60742 C 460.87723 491.12365 478.43905 476.16536 487.50391 456.30078 C 501.48067 422.00233 503.28439 381.85747 490.40039 346.91406 C 481.57345 322.2665 460.39744 303.02006 435.36523 297.90625 C 429.29533 296.24826 422.98899 295.34422 416.66992 295.22461 z M 407.8418 349.97461 C 418.97157 349.96495 430.56521 353.17253 438.12891 361.98047 C 447.68487 373.25174 450.60314 389.065 449.44727 403.65625 C 447.97153 417.06587 441.25943 430.02722 430.85352 438.23047 C 419.55216 444.21324 405.28278 446.51879 393.7168 439.97461 C 386.88108 436.20672 381.04544 430.47037 376.78516 423.83008 C 369.71294 408.36226 369.13673 389.8539 375.62305 374.06836 C 380.12098 361.95821 390.65518 352.42422 403.11328 350.16797 C 404.67119 350.04224 406.25183 349.97599 407.8418 349.97461 z " />
  <path
     inkscape:original-d="M 0,0"
     inkscape:path-effect="#path-effect48"
     d="M 0,0"
     id="path48" />
  <g
     id="g17"
     transform="matrix(1.1066496,0,0,1.1440591,-54.487023,-71.417603)">
    <path
       style="opacity:1"
       fill="#e8967f"
       d="m 386.5,328.5 c 0.667,4.333 1.333,8.667 2,13 -0.283,0.789 -0.783,1.456 -1.5,2 -0.499,-4.989 -0.666,-9.989 -0.5,-15 z"
       id="path17" />
  </g>
  <path
     id="path18"
     style="stroke-width:1.1252;fill:#df983c;fill-opacity:1"
     d="M 857.00586 373.62695 C 853.07196 373.70346 848.95829 374.08362 844.66602 374.76562 C 812.48243 387.71522 799.01906 411.93221 804.27344 447.41406 C 815.22152 478.72696 836.80047 492.83767 869.01172 489.74414 C 879.36 487.82669 888.58148 483.43999 896.67773 476.58594 C 912.07454 459.65272 917.60766 439.63229 913.27734 416.52344 C 903.29883 387.39084 884.54317 373.09137 857.00586 373.62695 z M 854.625 411.94727 C 874.19278 412.16464 881.38641 422.07961 876.20508 441.69336 C 868.96981 452.42349 859.56409 454.90183 847.98633 449.12891 C 839.75285 440.68575 838.09234 430.96093 843.00586 419.95508 C 846.3734 416.23231 850.24599 413.56382 854.625 411.94727 z " />
  <g
     id="g19"
     transform="matrix(1.1066496,0,0,1.1440591,-54.487023,-71.417603)">
    <path
       style="opacity:1"
       fill="#7d0c02"
       d="m 707.5,331.5 c 0.999,54.164 1.332,108.497 1,163 -20,0 -40,0 -60,0 0,-0.333 0,-0.667 0,-1 19.667,0 39.333,0 59,0 0,-54 0,-108 0,-162 z"
       id="path19" />
  </g>
  <g
     id="g20"
     transform="matrix(1.1066496,0,0,1.1440591,-54.487023,-71.417603)">
    <path
       style="opacity:1"
       fill="#d64123"
       d="m 902.5,332.5 c 0.297,38.684 -0.037,77.351 -1,116 -1.43,0.079 -2.764,-0.254 -4,-1 -0.333,-4.667 -0.667,-9.333 -1,-14 -0.144,-5.171 0.356,-10.171 1.5,-15 0.168,8.686 0.668,17.352 1.5,26 0.667,-37.667 1.333,-75.333 2,-113 0.607,0.124 0.94,0.457 1,1 z"
       id="path20" />
  </g>
  <g
     id="g22"
     transform="matrix(1.1066496,0,0,1.1440591,-54.487023,-71.417603)">
    <path
       style="opacity:1"
       fill="#c84126"
       d="m 903.5,332.5 c -0.333,0 -0.667,0 -1,0 -0.06,-0.543 -0.393,-0.876 -1,-1 -0.667,37.667 -1.333,75.333 -2,113 -0.832,-8.648 -1.332,-17.314 -1.5,-26 -1.144,4.829 -1.644,9.829 -1.5,15 0.333,4.667 0.667,9.333 1,14 1.236,0.746 2.57,1.079 4,1 0,0.667 0,1.333 0,2 -2.587,21.416 -14.254,34.916 -35,40.5 -10.841,0.825 -21.508,0.659 -32,-0.5 9.351,-1.676 17.684,-5.509 25,-11.5 13.913,-14.801 18.913,-32.301 15,-52.5 0,-31.667 0,-63.333 0,-95 -10.339,0.166 -20.672,0 -31,-0.5 -2.894,-2.909 -3.727,-6.409 -2.5,-10.5 13.471,-14.471 27.304,-28.638 41.5,-42.5 3.667,-2 7.333,-2 11,0 14.529,14.195 28.696,28.695 42.5,43.5 1.027,3.68 0.194,6.847 -2.5,9.5 -10.077,0.191 -20.077,0.691 -30,1.5 z"
       id="path22" />
  </g>
  <g
     id="g23"
     transform="matrix(1.1066496,0,0,1.1440591,-54.487023,-71.417603)">
    <path
       style="opacity:1"
       fill="#890e01"
       d="m 632.5,442.5 c 0.997,16.825 1.33,33.825 1,51 -2,0.333 -4,0.667 -6,1 1.28,-1.431 2.947,-2.098 5,-2 0,-16.667 0,-33.333 0,-50 z"
       id="path23" />
  </g>
  <g
     id="g24"
     transform="matrix(1.1066496,0,0,1.1440591,-54.487023,-71.417603)">
    <path
       style="opacity:1"
       fill="#267577"
       d="m 865.5,351.5 c 0.167,12.005 0,24.005 -0.5,36 -0.671,-0.752 -1.504,-1.086 -2.5,-1 -16.531,-9.533 -34.197,-12.366 -53,-8.5 -29.302,9.253 -44.969,29.253 -47,60 2.907,39.573 24.073,61.406 63.5,65.5 15.485,-2.415 30.985,-4.582 46.5,-6.5 22.383,-8.403 35.217,-24.569 38.5,-48.5 0.333,-18.333 0.667,-36.667 1,-55 10.553,18.64 14.219,38.64 11,60 -6.409,37.653 -27.243,63.819 -62.5,78.5 -44.807,13.928 -82.307,3.095 -112.5,-32.5 -20.984,-30.874 -24.984,-63.874 -12,-99 20.883,-42.369 55.05,-61.869 102.5,-58.5 9.801,1.32 18.801,4.487 27,9.5 z"
       id="path24" />
  </g>
  <g
     id="g26"
     transform="matrix(1.1066496,0,0,1.1440591,-54.487023,-71.417603)">
    <path
       style="opacity:1"
       fill="#c84126"
       d="m 591.5,290.5 c 0,12.333 0,24.667 0,37 12.155,0.995 24.489,1.329 37,1 -0.329,14.843 0.004,29.51 1,44 -12.489,0.995 -25.156,1.329 -38,1 -0.167,19.336 0,38.67 0.5,58 1.763,6.762 5.93,11.262 12.5,13.5 9.571,1.174 18.904,0.34 28,-2.5 0,16.667 0,33.333 0,50 -2.053,-0.098 -3.72,0.569 -5,2 -3.044,1.511 -6.378,2.178 -10,2 -14,1.333 -28,1.333 -42,0 -17.983,-2.496 -30.15,-12.163 -36.5,-29 -2.086,-6.85 -3.42,-13.85 -4,-21 -0.5,-24.331 -0.667,-48.664 -0.5,-73 -7.667,0 -15.333,0 -23,0 0,-15.667 0,-31.333 0,-47 16.365,0.341 27.365,-6.993 33,-22 0.722,-0.418 1.222,-1.084 1.5,-2 0.499,-3.986 0.666,-7.986 0.5,-12 15,0 30,0 45,0 z"
       id="path26" />
  </g>
  <g
     id="g28"
     transform="matrix(1.1066496,0,0,1.1440591,-54.487023,-71.417603)">
    <path
       style="opacity:1"
       fill="#922d1a"
       d="m 575.5,496.5 c 14,1.333 28,1.333 42,0 -6.938,1.507 -14.104,2.173 -21.5,2 -7.07,0.197 -13.903,-0.47 -20.5,-2 z"
       id="path28" />
  </g>
  <path
     id="path31"
     style="stroke-width:1.1252;fill:#277679;fill-opacity:1"
     d="M 363.30664 571.18555 C 309.69933 571.3337 279.43906 600.62627 272.52734 659.06445 C 272.81507 676.23564 274.65982 693.39629 278.06055 710.54688 C 278.01297 711.59483 277.64563 712.35691 276.95508 712.83398 C 280.78409 726.8876 287.23914 739.47221 296.32031 750.58789 C 319.52233 772.3662 346.63634 780.18657 377.66016 774.04297 C 393.55164 770.93685 406.27838 762.73699 415.83984 749.44531 C 416.39216 755.15302 416.57629 760.87259 416.39258 766.60547 C 437.35253 768.48287 458.37796 769.62639 479.4707 770.03711 C 480.1535 769.91011 480.70702 769.53062 481.13086 768.89453 C 481.869 705.97128 481.869 643.04825 481.13086 580.125 C 480.20902 578.40892 478.91778 577.07214 477.25781 576.11914 C 457.33812 575.35605 437.41969 575.35605 417.5 576.11914 C 416.60472 582.31651 416.05121 588.60881 415.83984 594.99609 C 404.90393 581.99729 391.07017 574.17888 374.33984 571.54297 C 370.55849 571.29378 366.88046 571.17567 363.30664 571.18555 z M 375.23242 626.61328 C 401.77835 626.81843 415.86728 642.02069 417.5 672.2207 C 417.63059 692.94533 408.77643 707.81893 390.93945 716.83984 C 365.87826 722.66996 348.72543 713.32659 339.48047 688.81055 C 333.7768 668.35134 338.01868 650.61795 352.20703 635.61133 C 356.74651 632.12653 361.54189 629.26674 366.59375 627.03125 C 369.6065 626.73147 372.48629 626.59206 375.23242 626.61328 z " />
  <g
     id="g32"
     transform="matrix(1.1066496,0,0,1.1440591,-54.487023,-71.417603)">
    <path
       style="opacity:1"
       fill="#267678"
       d="m 563.5,735.5 c -19.069,-0.672 -38.236,-1.339 -57.5,-2 -0.325,-18.783 -0.158,-36.95 0.5,-54.5 -0.308,-1.459 -0.975,-2.626 -2,-3.5 0,-0.333 0,-0.667 0,-1 0.617,-0.111 1.117,-0.444 1.5,-1 0.167,-6 0.333,-12 0.5,-18 -1.045,-13.703 -1.045,-27.203 0,-40.5 -0.015,-3.576 -0.682,-6.742 -2,-9.5 -0.323,-13.246 0.011,-26.413 1,-39.5 19.333,-0.667 38.667,-0.667 58,0 0.5,0.5 1,1 1.5,1.5 0.333,5.333 0.667,10.667 1,16 24.187,-25.167 52.687,-31.333 85.5,-18.5 21.185,10.898 32.351,28.398 33.5,52.5 0.667,39 0.667,78 0,117 -19.435,1.325 -38.935,1.325 -58.5,0 -0.526,-35.997 -1.36,-71.997 -2.5,-108 -4.631,-13.408 -14.131,-19.408 -28.5,-18 -14.209,-0.493 -23.709,5.84 -28.5,19 -1.301,35.628 -1.967,71.294 -2,107 -0.383,0.556 -0.883,0.889 -1.5,1 z"
       id="path32" />
  </g>
  <g
     id="g33"
     transform="matrix(1.1066496,0,0,1.1440591,-54.487023,-71.417603)">
    <path
       style="opacity:1"
       fill="#2b6062"
       d="m 752.5,519.5 c -15.285,-0.969 -30.619,-1.302 -46,-1 0,72 0,144 0,216 -0.617,-0.111 -1.117,-0.444 -1.5,-1 -0.5,-71.999 -0.667,-143.999 -0.5,-216 15.67,-0.167 31.337,0 47,0.5 0.556,0.383 0.889,0.883 1,1.5 z"
       id="path33" />
  </g>
  <path
     id="path34"
     style="stroke-width:1.1252;fill:#277679;fill-opacity:1"
     d="M 127.00391 517.20117 C 105.42424 517.20117 83.843337 517.3919 62.263672 517.77344 C 61.288714 518.58344 60.552093 519.5368 60.050781 520.63281 C 58.578937 603.37231 58.578937 686.12643 60.050781 768.89453 C 81.891617 770.41727 103.83985 770.41727 125.89648 768.89453 C 126.44981 740.29534 126.63403 711.69361 126.44922 683.08984 C 130.89131 682.89993 135.31937 683.09123 139.73047 683.66211 C 143.98443 685.20316 146.93618 688.06294 148.58398 692.24219 C 163.12978 716.19878 177.14777 740.60397 190.63672 765.46094 C 192.2303 767.12211 194.07393 768.26758 196.16992 768.89453 L 271.42188 768.89453 L 271.42188 764.31836 C 251.82754 735.46633 231.53787 707.05589 210.55469 679.08594 C 240.57809 670.16571 258.10022 649.76384 263.12109 617.87891 C 269.28402 561.33151 245.49106 527.96243 191.74219 517.77344 C 170.16252 517.3919 148.58357 517.20117 127.00391 517.20117 z M 136.9668 572.04492 C 146.37543 572.04487 155.7815 572.25848 165.18359 572.6875 C 186.12472 574.49511 195.89972 586.12749 194.50977 607.58203 C 190.69072 620.29825 182.39008 627.73406 169.60938 629.89062 C 155.59144 630.6537 141.57457 630.6537 127.55664 629.89062 C 126.08811 610.63267 126.08811 591.37318 127.55664 572.11523 C 130.69344 572.06747 133.83059 572.04494 136.9668 572.04492 z " />
  <g
     id="g37"
     transform="matrix(1.1066496,0,0,1.1440591,-54.487023,-71.417603)">
    <path
       style="opacity:1"
       fill="#1b5e5f"
       d="m 504.5,605.5 c 1.318,2.758 1.985,5.924 2,9.5 -1.045,13.297 -1.045,26.797 0,40.5 -0.167,6 -0.333,12 -0.5,18 -0.383,0.556 -0.883,0.889 -1.5,1 0,-23 0,-46 0,-69 z"
       id="path37" />
  </g>
  <g
     id="g38"
     transform="matrix(1.1066496,0,0,1.1440591,-54.487023,-71.417603)" />
  <g
     id="g39"
     transform="matrix(1.1066496,0,0,1.1440591,-54.487023,-71.417603)">
    <path
       style="opacity:1"
       fill="#174f51"
       d="m 295.5,638.5 c 0.26,15.009 1.927,30.009 5,45 -0.043,0.916 -0.376,1.583 -1,2 -3.58,-15.434 -4.914,-31.101 -4,-47 z"
       id="path39" />
  </g>
  <g
     id="g40"
     transform="matrix(1.1066496,0,0,1.1440591,-54.487023,-71.417603)">
    <path
       style="opacity:1"
       fill="#277679"
       d="m 752.5,519.5 c 4.211,2.031 8.044,4.698 11.5,8 0.333,33.333 0.667,66.667 1,100 15.833,-20.5 31.667,-41 47.5,-61.5 22.573,-0.827 45.073,-0.66 67.5,0.5 -0.044,1.779 -0.711,3.445 -2,5 -19.311,24.145 -38.811,48.145 -58.5,72 21.597,29.549 42.931,59.215 64,89 -11.147,1.332 -22.647,1.999 -34.5,2 -12.138,-0.352 -23.971,-0.352 -35.5,0 -16.304,-22.486 -32.47,-45.153 -48.5,-68 -0.499,5.657 -0.666,11.324 -0.5,17 -0.673,16.735 -1.34,33.569 -2,50.5 -18.664,0.5 -37.33,0.667 -56,0.5 0,-72 0,-144 0,-216 15.381,-0.302 30.715,0.031 46,1 z"
       id="path40" />
  </g>
  <g
     id="g42"
     transform="matrix(1.1066496,0,0,1.1440591,-54.487023,-71.417603)">
    <path
       style="opacity:1"
       fill="#02484e"
       d="m 294.5,730.5 c 1.72,1.251 2.053,2.751 1,4.5 -23.17,0.83 -46.17,0.663 -69,-0.5 22.667,0 45.333,0 68,0 0,-1.333 0,-2.667 0,-4 z"
       id="path42" />
  </g>
  <g
     id="g44"
     transform="matrix(1.1066496,0,0,1.1440591,-54.487023,-71.417603)">
    <path
       style="opacity:1"
       fill="#0e4e52"
       d="m 504.5,675.5 c 1.025,0.874 1.692,2.041 2,3.5 -0.658,17.55 -0.825,35.717 -0.5,54.5 19.264,0.661 38.431,1.328 57.5,2 -19.576,0.326 -39.076,-0.007 -58.5,-1 -0.5,-19.664 -0.667,-39.331 -0.5,-59 z"
       id="path44" />
  </g>
  <g
     id="g45"
     transform="matrix(1.1066496,0,0,1.1440591,-54.487023,-71.417603)">
    <path
       style="opacity:1"
       fill="#03464a"
       d="m 764.5,683.5 c 0.325,17.244 -0.008,34.41 -1,51.5 -19.171,0.829 -38.171,0.662 -57,-0.5 18.67,0.167 37.336,0 56,-0.5 0.66,-16.931 1.327,-33.765 2,-50.5 z"
       id="path45" />
  </g>
  <g
     id="g46"
     transform="matrix(1.1066496,0,0,1.1440591,-54.487023,-71.417603)">
    <path
       style="opacity:1"
       fill="#024850"
       d="m 883.5,732.5 c 0.978,0.311 1.645,0.978 2,2 -24.163,1.329 -48.163,1.329 -72,0 11.529,-0.352 23.362,-0.352 35.5,0 11.853,-10e-4 23.353,-0.668 34.5,-2 z"
       id="path46" />
  </g>
</svg>
